<svg width="164" height="41" viewBox="0 0 164 41" fill="none" xmlns="http://www.w3.org/2000/svg">
<g clip-path="url(#clip0_5423_141318)">
<path d="M75.3897 4.10156H72.5312V7.14551H75.3897V4.10156Z" fill="white"/>
<path d="M88.7331 4.10156H85.875V7.14551H88.7331V4.10156Z" fill="white"/>
<path d="M21.4926 18.6228L16.5932 27.8936H26.2563L21.4926 18.6228ZM21.6286 12.2578L34.8305 37.1642H31.292L27.7533 30.3841H15.0958L11.4212 37.1642H7.88281L21.6286 12.2578Z" fill="white"/>
<path d="M53.0708 18.6228L48.1713 27.8936H57.8344L53.0708 18.6228ZM53.2071 12.2578L66.4086 37.1642H62.8702L59.3314 30.3841H46.6739L42.9994 37.1642H39.4609L53.2071 12.2578Z" fill="white"/>
<path d="M75.5257 12.4062H72.5312V37.174H75.5257V12.4062Z" fill="white"/>
<path d="M88.8694 12.4062H85.875V37.174H88.8694V12.4062Z" fill="white"/>
<path d="M0.585938 0.25V40.9748H96.8962V0.25H0.585938ZM95.4354 1.73578C95.4354 1.96857 95.4354 4.55346 95.4354 8.73323H2.04737C2.04737 4.55346 2.04737 1.96857 2.04737 1.73578C3.47539 1.73578 94.0077 1.73578 95.4354 1.73578ZM2.04737 10.219H95.4354C95.4354 17.2712 95.4354 27.9811 95.4354 39.5182H2.04737C2.04737 27.9809 2.04737 17.271 2.04737 10.219Z" fill="white"/>
<path d="M108.372 6.53493H106.976L106.421 5.06648H103.879L103.354 6.53493H101.992L104.469 0.0703125H105.826L108.372 6.53493ZM106.008 3.97732L105.132 1.57839L104.274 3.97732H106.008Z" fill="white"/>
<path d="M108.953 1.84786H110.077V2.48739C110.479 1.99059 110.957 1.74219 111.513 1.74219C111.807 1.74219 112.063 1.80394 112.28 1.92746C112.497 2.05097 112.675 2.23762 112.814 2.48756C113.016 2.23762 113.234 2.05097 113.469 1.92746C113.703 1.80394 113.953 1.74219 114.219 1.74219C114.557 1.74219 114.844 1.81201 115.078 1.95165C115.312 2.09129 115.487 2.29629 115.603 2.56665C115.686 2.76667 115.728 3.09004 115.728 3.53675V6.53095H114.509V3.85429C114.509 3.38974 114.468 3.08987 114.384 2.95469C114.271 2.77834 114.098 2.69016 113.863 2.69016C113.693 2.69016 113.532 2.743 113.382 2.84884C113.231 2.95469 113.123 3.10977 113.056 3.31408C112.99 3.5184 112.957 3.84108 112.957 4.28196V6.53095H111.738V3.96459C111.738 3.50896 111.716 3.21493 111.673 3.08266C111.629 2.9504 111.562 2.85193 111.471 2.78726C111.38 2.72258 111.256 2.69033 111.1 2.69033C110.912 2.69033 110.743 2.7418 110.593 2.84456C110.442 2.94748 110.335 3.09587 110.269 3.28989C110.204 3.48392 110.172 3.80591 110.172 4.25554V6.53095H108.953V1.84786H108.953Z" fill="white"/>
<path d="M119.609 5.04054L120.824 5.24777C120.667 5.70066 120.421 6.0453 120.084 6.28186C119.747 6.51843 119.326 6.6368 118.82 6.6368C118.019 6.6368 117.426 6.3709 117.041 5.83876C116.738 5.41246 116.586 4.87448 116.586 4.22483C116.586 3.44875 116.786 2.84095 117.184 2.40145C117.584 1.96194 118.088 1.74219 118.698 1.74219C119.384 1.74219 119.924 1.97223 120.32 2.43233C120.717 2.89242 120.906 3.59731 120.889 4.54683H117.835C117.844 4.91445 117.942 5.20025 118.13 5.40457C118.318 5.60888 118.552 5.71112 118.833 5.71112C119.024 5.71112 119.184 5.65812 119.314 5.55244C119.444 5.44608 119.543 5.27574 119.609 5.04054ZM119.679 3.78807C119.67 3.42953 119.579 3.15677 119.405 2.96996C119.232 2.78331 119.021 2.68999 118.772 2.68999C118.506 2.68999 118.286 2.78846 118.113 2.9854C117.939 3.18233 117.854 3.44995 117.857 3.7879H119.679V3.78807Z" fill="white"/>
<path d="M123.055 6.53112H121.836V1.84803H122.968V2.51398C123.162 2.19953 123.336 1.99213 123.491 1.89212C123.645 1.79211 123.821 1.74219 124.018 1.74219C124.295 1.74219 124.563 1.82007 124.82 1.97584L124.443 3.05625C124.237 2.92107 124.047 2.8533 123.87 2.8533C123.699 2.8533 123.555 2.90117 123.436 2.99655C123.318 3.0921 123.225 3.26485 123.157 3.51479C123.089 3.76474 123.055 4.28796 123.055 5.08463V6.53112H123.055Z" fill="white"/>
<path d="M125.336 1.21694V0.0703125H126.555V1.21694H125.336ZM125.336 6.53493V1.85184H126.555V6.53493H125.336Z" fill="white"/>
<path d="M131.824 3.2326L130.623 3.45304C130.583 3.2091 130.491 3.02537 130.348 2.90185C130.204 2.77834 130.019 2.71658 129.79 2.71658C129.486 2.71658 129.244 2.82328 129.064 3.03635C128.883 3.24958 128.793 3.60589 128.793 4.10561C128.793 4.66125 128.884 5.05375 129.068 5.28311C129.252 5.5123 129.498 5.62707 129.808 5.62707C130.039 5.62707 130.228 5.56016 130.376 5.42653C130.523 5.29289 130.627 5.06267 130.688 4.73639L131.885 4.94362C131.761 5.50218 131.522 5.92402 131.17 6.20913C130.817 6.49441 130.344 6.6368 129.751 6.6368C129.078 6.6368 128.54 6.42082 128.14 5.98869C127.739 5.55656 127.539 4.95837 127.539 4.19395C127.539 3.42079 127.74 2.81882 128.142 2.38824C128.544 1.95765 129.088 1.74219 129.773 1.74219C130.334 1.74219 130.78 1.86502 131.111 2.11033C131.442 2.35582 131.68 2.72979 131.824 3.2326Z" fill="white"/>
<path d="M133.653 3.27669L132.547 3.07392C132.672 2.6212 132.886 2.286 133.189 2.06847C133.493 1.85095 133.944 1.74219 134.543 1.74219C135.086 1.74219 135.491 1.80755 135.757 1.93844C136.023 2.06933 136.211 2.23539 136.319 2.43661C136.427 2.63801 136.482 3.0077 136.482 3.54567L136.469 4.992C136.469 5.40354 136.488 5.70718 136.527 5.90257C136.566 6.09814 136.639 6.3076 136.746 6.53095H135.54C135.509 6.44878 135.47 6.32664 135.424 6.16487C135.403 6.09145 135.389 6.04307 135.38 6.0194C135.172 6.22525 134.949 6.37965 134.712 6.48241C134.475 6.58533 134.222 6.63663 133.953 6.63663C133.479 6.63663 133.105 6.50591 132.832 6.24412C132.559 5.98251 132.422 5.65177 132.422 5.25189C132.422 4.98736 132.484 4.75148 132.608 4.54425C132.733 4.33702 132.907 4.17817 133.131 4.06804C133.355 3.9579 133.678 3.86149 134.1 3.77915C134.67 3.67039 135.065 3.569 135.285 3.47482V3.35131C135.285 3.1132 135.227 2.94354 135.111 2.84198C134.995 2.74043 134.777 2.68982 134.456 2.68982C134.239 2.68982 134.07 2.73322 133.949 2.81985C133.827 2.90648 133.729 3.05916 133.653 3.27669ZM135.284 4.28213C135.128 4.33514 134.881 4.39827 134.543 4.47169C134.204 4.54528 133.983 4.61716 133.879 4.68784C133.72 4.80243 133.64 4.94808 133.64 5.12426C133.64 5.29787 133.704 5.4478 133.831 5.57406C133.958 5.70049 134.12 5.76362 134.317 5.76362C134.537 5.76362 134.746 5.6902 134.946 5.54318C135.093 5.4315 135.19 5.29478 135.237 5.13301C135.268 5.02716 135.284 4.82576 135.284 4.52882V4.28213Z" fill="white"/>
<path d="M141.879 6.53112H140.66V4.14112C140.66 3.63556 140.634 3.30842 140.581 3.15986C140.529 3.01147 140.445 2.89602 140.328 2.81368C140.211 2.73133 140.07 2.69016 139.905 2.69016C139.694 2.69016 139.504 2.749 139.337 2.86651C139.169 2.9842 139.054 3.13996 138.992 3.33398C138.93 3.528 138.898 3.88671 138.898 4.40993V6.53095H137.68V1.84803H138.812V2.53594C139.214 2.00689 139.72 1.74219 140.33 1.74219C140.599 1.74219 140.845 1.79142 141.067 1.88989C141.29 1.98836 141.458 2.1141 141.572 2.26695C141.687 2.4198 141.766 2.59324 141.811 2.78726C141.856 2.98128 141.878 3.25902 141.878 3.62064V6.53112H141.879Z" fill="white"/>
<path d="M108.372 17.3709H106.976L106.421 15.9024H103.879L103.354 17.3709H101.992L104.469 10.9062H105.827L108.372 17.3709ZM106.008 14.8133L105.132 12.4143L104.274 14.8133H106.008Z" fill="white"/>
<path d="M108.617 16.0307L109.84 15.8411C109.893 16.0822 109.998 16.2652 110.157 16.3901C110.316 16.5152 110.539 16.5776 110.825 16.5776C111.14 16.5776 111.377 16.5188 111.536 16.4012C111.643 16.3191 111.697 16.2088 111.697 16.0705C111.697 15.9765 111.668 15.8986 111.61 15.8369C111.549 15.7782 111.413 15.7238 111.202 15.6737C110.219 15.4533 109.596 15.252 109.333 15.0697C108.969 14.8168 108.786 14.4657 108.786 14.0157C108.786 13.61 108.944 13.2689 109.259 12.9928C109.574 12.7166 110.063 12.5781 110.725 12.5781C111.355 12.5781 111.824 12.6824 112.131 12.8912C112.437 13.1 112.648 13.4086 112.764 13.8172L111.614 14.0334C111.565 13.851 111.472 13.7115 111.335 13.6144C111.197 13.5175 111.001 13.469 110.747 13.469C110.426 13.469 110.196 13.5146 110.057 13.6057C109.965 13.6704 109.918 13.7543 109.918 13.857C109.918 13.9452 109.959 14.0202 110.04 14.0819C110.15 14.1643 110.529 14.2804 111.179 14.4303C111.828 14.5803 112.281 14.764 112.538 14.9815C112.793 15.202 112.92 15.5092 112.92 15.9032C112.92 16.3325 112.744 16.7015 112.391 17.0101C112.038 17.3187 111.516 17.4731 110.825 17.4731C110.198 17.4731 109.701 17.3439 109.335 17.085C108.969 16.826 108.73 16.4747 108.617 16.0307Z" fill="white"/>
<path d="M113.555 16.0307L114.778 15.8411C114.83 16.0822 114.936 16.2652 115.095 16.3901C115.254 16.5152 115.476 16.5776 115.763 16.5776C116.078 16.5776 116.315 16.5188 116.474 16.4012C116.581 16.3191 116.634 16.2088 116.634 16.0705C116.634 15.9765 116.605 15.8986 116.548 15.8369C116.487 15.7782 116.351 15.7238 116.14 15.6737C115.157 15.4533 114.533 15.252 114.27 15.0697C113.906 14.8168 113.724 14.4657 113.724 14.0157C113.724 13.61 113.882 13.2689 114.197 12.9928C114.512 12.7166 115.001 12.5781 115.663 12.5781C116.293 12.5781 116.762 12.6824 117.068 12.8912C117.374 13.1 117.586 13.4086 117.701 13.8172L116.552 14.0334C116.503 13.851 116.409 13.7115 116.272 13.6144C116.135 13.5175 115.939 13.469 115.684 13.469C115.364 13.469 115.134 13.5146 114.995 13.6057C114.902 13.6704 114.856 13.7543 114.856 13.857C114.856 13.9452 114.896 14.0202 114.977 14.0819C115.087 14.1643 115.467 14.2804 116.116 14.4303C116.765 14.5803 117.218 14.764 117.476 14.9815C117.73 15.202 117.858 15.5092 117.858 15.9032C117.858 16.3325 117.681 16.7015 117.329 17.0101C116.976 17.3187 116.454 17.4731 115.763 17.4731C115.135 17.4731 114.639 17.3439 114.273 17.085C113.907 16.826 113.668 16.4747 113.555 16.0307Z" fill="white"/>
<path d="M118.648 14.9592C118.648 14.5477 118.748 14.1493 118.948 13.7642C119.147 13.3791 119.43 13.0852 119.796 12.8823C120.161 12.6795 120.57 12.5781 121.021 12.5781C121.718 12.5781 122.289 12.8082 122.734 13.2683C123.18 13.7284 123.402 14.3097 123.402 15.0124C123.402 15.7209 123.177 16.3081 122.728 16.774C122.278 17.2399 121.712 17.4729 121.03 17.4729C120.607 17.4729 120.205 17.376 119.822 17.182C119.439 16.9879 119.147 16.7035 118.948 16.3287C118.748 15.9537 118.648 15.4972 118.648 14.9592ZM119.898 15.0254C119.898 15.49 120.006 15.8456 120.223 16.0926C120.44 16.3395 120.707 16.463 121.025 16.463C121.344 16.463 121.61 16.3395 121.826 16.0926C122.041 15.8458 122.149 15.4871 122.149 15.0167C122.149 14.5581 122.041 14.2054 121.826 13.9584C121.61 13.7115 121.344 13.588 121.025 13.588C120.707 13.588 120.44 13.7115 120.223 13.9584C120.006 14.2053 119.898 14.5609 119.898 15.0254Z" fill="white"/>
<path d="M128.371 14.0685L127.17 14.289C127.129 14.045 127.038 13.8613 126.894 13.7378C126.751 13.6143 126.566 13.5525 126.337 13.5525C126.033 13.5525 125.791 13.6592 125.61 13.8723C125.43 14.0855 125.339 14.4418 125.339 14.9415C125.339 15.4972 125.431 15.8897 125.615 16.119C125.798 16.3482 126.045 16.463 126.354 16.463C126.586 16.463 126.775 16.3961 126.923 16.2625C127.07 16.1288 127.174 15.8986 127.235 15.5723L128.432 15.7796C128.308 16.3381 128.069 16.76 127.716 17.0451C127.364 17.3304 126.891 17.4727 126.298 17.4727C125.624 17.4727 125.087 17.2568 124.687 16.8246C124.286 16.3925 124.086 15.7943 124.086 15.0299C124.086 14.2567 124.287 13.6548 124.689 13.2242C125.091 12.7936 125.634 12.5781 126.32 12.5781C126.881 12.5781 127.327 12.701 127.658 12.9463C127.989 13.1918 128.227 13.5657 128.371 14.0685Z" fill="white"/>
<path d="M129.297 12.0529V10.9062H130.516V12.0529H129.297ZM129.297 17.3709V12.6878H130.516V17.3709H129.297Z" fill="white"/>
<path d="M132.677 14.1126L131.571 13.9099C131.695 13.4571 131.909 13.1219 132.213 12.9044C132.516 12.6869 132.968 12.5781 133.566 12.5781C134.11 12.5781 134.515 12.6435 134.781 12.7744C135.047 12.9053 135.234 13.0713 135.342 13.2726C135.451 13.4739 135.505 13.8436 135.505 14.3816L135.492 15.8279C135.492 16.2395 135.512 16.5431 135.551 16.7385C135.589 16.9341 135.663 17.1435 135.77 17.3669H134.564C134.532 17.2847 134.493 17.1626 134.447 17.0008C134.427 16.9274 134.412 16.879 134.403 16.8553C134.195 17.0612 133.972 17.2156 133.736 17.3183C133.499 17.4213 133.245 17.4726 132.976 17.4726C132.502 17.4726 132.129 17.3418 131.855 17.0801C131.582 16.8185 131.445 16.4877 131.445 16.0878C131.445 15.8233 131.507 15.5874 131.632 15.3802C131.756 15.173 131.93 15.0141 132.154 14.904C132.378 14.7938 132.702 14.6974 133.124 14.6151C133.693 14.5063 134.088 14.4049 134.308 14.3108V14.1872C134.308 13.9491 134.25 13.7795 134.134 13.6779C134.019 13.5764 133.801 13.5258 133.48 13.5258C133.263 13.5258 133.094 13.5692 132.972 13.6558C132.851 13.7424 132.752 13.8951 132.677 14.1126ZM134.308 15.1181C134.152 15.1711 133.904 15.2342 133.566 15.3076C133.228 15.3812 133.007 15.4531 132.902 15.5238C132.743 15.6384 132.664 15.784 132.664 15.9602C132.664 16.1338 132.727 16.2837 132.855 16.41C132.982 16.5364 133.144 16.5996 133.34 16.5996C133.56 16.5996 133.77 16.5261 133.969 16.3791C134.117 16.2674 134.214 16.1307 134.26 15.9689C134.292 15.8631 134.308 15.6617 134.308 15.3648V15.1181Z" fill="white"/>
<path d="M138.811 12.6848V13.6726H137.978V15.5599C137.978 15.9422 137.986 16.1648 138.002 16.228C138.017 16.2913 138.054 16.3434 138.11 16.3846C138.166 16.4258 138.235 16.4463 138.316 16.4463C138.429 16.4463 138.592 16.4067 138.806 16.3273L138.91 17.2886C138.627 17.4122 138.306 17.4739 137.947 17.4739C137.728 17.4739 137.53 17.4365 137.353 17.3615C137.177 17.2866 137.047 17.1897 136.965 17.0704C136.883 16.9514 136.826 16.7905 136.794 16.5877C136.768 16.4438 136.755 16.1526 136.755 15.7145V13.6726H136.195V12.6848H136.755V11.7543L137.978 11.0312V12.6848H138.811Z" fill="white"/>
<path d="M139.656 12.0529V10.9062H140.875V12.0529H139.656ZM139.656 17.3709V12.6878H140.875V17.3709H139.656Z" fill="white"/>
<path d="M141.844 14.9592C141.844 14.5477 141.944 14.1493 142.143 13.7642C142.343 13.3791 142.625 13.0852 142.991 12.8823C143.357 12.6795 143.765 12.5781 144.216 12.5781C144.913 12.5781 145.484 12.8082 145.93 13.2683C146.375 13.7284 146.598 14.3097 146.598 15.0124C146.598 15.7209 146.373 16.3081 145.923 16.774C145.473 17.2399 144.907 17.4729 144.225 17.4729C143.803 17.4729 143.4 17.376 143.017 17.182C142.634 16.9879 142.343 16.7035 142.143 16.3287C141.944 15.9537 141.844 15.4972 141.844 14.9592ZM143.093 15.0254C143.093 15.49 143.201 15.8456 143.418 16.0926C143.635 16.3395 143.903 16.463 144.221 16.463C144.539 16.463 144.806 16.3395 145.021 16.0926C145.236 15.8458 145.344 15.4871 145.344 15.0167C145.344 14.5581 145.236 14.2054 145.021 13.9584C144.806 13.7115 144.539 13.588 144.221 13.588C143.903 13.588 143.635 13.7115 143.418 13.9584C143.201 14.2053 143.093 14.5609 143.093 15.0254Z" fill="white"/>
<path d="M151.746 17.3671H150.527V14.9771C150.527 14.4715 150.501 14.1444 150.449 13.9958C150.397 13.8474 150.312 13.732 150.195 13.6496C150.078 13.5673 149.937 13.5261 149.772 13.5261C149.561 13.5261 149.371 13.5849 149.204 13.7025C149.036 13.8201 148.921 13.9759 148.859 14.1699C148.797 14.3639 148.766 14.7226 148.766 15.2459V17.3669H147.547V12.684H148.679V13.3719C149.081 12.8428 149.587 12.5781 150.197 12.5781C150.466 12.5781 150.712 12.6274 150.934 12.7258C151.157 12.8243 151.325 12.95 151.44 13.1029C151.554 13.2557 151.633 13.4292 151.678 13.6232C151.723 13.8172 151.745 14.095 151.745 14.4566V17.3671H151.746Z" fill="white"/>
<path d="M155.164 14.9592C155.164 14.5477 155.264 14.1493 155.463 13.7642C155.663 13.3791 155.945 13.0852 156.311 12.8823C156.677 12.6795 157.085 12.5781 157.537 12.5781C158.234 12.5781 158.805 12.8082 159.25 13.2683C159.695 13.7284 159.918 14.3097 159.918 15.0124C159.918 15.7209 159.693 16.3081 159.243 16.774C158.794 17.2399 158.228 17.4729 157.545 17.4729C157.123 17.4729 156.721 17.376 156.337 17.182C155.954 16.9879 155.663 16.7035 155.463 16.3287C155.264 15.9537 155.164 15.4972 155.164 14.9592ZM156.413 15.0254C156.413 15.49 156.522 15.8456 156.739 16.0926C156.956 16.3395 157.223 16.463 157.541 16.463C157.859 16.463 158.126 16.3395 158.342 16.0926C158.557 15.8458 158.665 15.4871 158.665 15.0167C158.665 14.5581 158.557 14.2054 158.342 13.9584C158.126 13.7115 157.859 13.588 157.541 13.588C157.223 13.588 156.956 13.7115 156.739 13.9584C156.522 14.2053 156.413 14.5609 156.413 15.0254Z" fill="white"/>
<path d="M160.336 12.6885H161.013V12.3358C161.013 11.942 161.054 11.6479 161.136 11.4539C161.219 11.2599 161.371 11.1019 161.592 10.9799C161.813 10.8579 162.093 10.7969 162.431 10.7969C162.778 10.7969 163.118 10.8499 163.45 10.9556L163.285 11.8198C163.092 11.7728 162.905 11.7493 162.726 11.7493C162.55 11.7493 162.423 11.7912 162.346 11.8749C162.27 11.9588 162.232 12.1197 162.232 12.3578V12.6885H163.142V13.6631H162.232V17.3716H161.013V13.6631H160.336V12.6885H160.336Z" fill="white"/>
<path d="M102.594 28.2146V21.75H103.878V28.2146H102.594Z" fill="white"/>
<path d="M109.293 28.2032H108.074V25.813C108.074 25.3074 108.048 24.9803 107.996 24.8319C107.943 24.6835 107.859 24.5681 107.742 24.4857C107.625 24.4034 107.484 24.3622 107.319 24.3622C107.108 24.3622 106.918 24.4211 106.751 24.5386C106.583 24.6562 106.468 24.812 106.406 25.006C106.344 25.2 106.313 25.5588 106.313 26.082V28.203H105.094V23.5199H106.226V24.2078C106.628 23.6788 107.134 23.4141 107.744 23.4141C108.013 23.4141 108.259 23.4633 108.481 23.5618C108.704 23.6602 108.872 23.786 108.987 23.9388C109.101 24.0917 109.18 24.2651 109.225 24.4591C109.27 24.6532 109.292 24.9309 109.292 25.2925V28.2032H109.293Z" fill="white"/>
<path d="M114.756 28.2146H113.624V27.5267C113.436 27.7943 113.214 27.9935 112.958 28.124C112.702 28.2549 112.444 28.3205 112.184 28.3205C111.654 28.3205 111.201 28.1036 110.824 27.67C110.446 27.2365 110.258 26.6314 110.258 25.8555C110.258 25.0617 110.441 24.4582 110.809 24.0453C111.176 23.6322 111.64 23.4257 112.201 23.4257C112.716 23.4257 113.161 23.6434 113.537 24.0783V21.75H114.756V28.2146H114.756ZM111.503 25.7716C111.503 26.2715 111.571 26.6329 111.707 26.8565C111.903 27.1798 112.178 27.3414 112.531 27.3414C112.811 27.3414 113.05 27.2202 113.246 26.9778C113.443 26.7352 113.541 26.3729 113.541 25.8907C113.541 25.3527 113.446 24.9653 113.255 24.7288C113.064 24.4922 112.82 24.3738 112.522 24.3738C112.233 24.3738 111.991 24.4907 111.795 24.7243C111.6 24.9579 111.503 25.3072 111.503 25.7716Z" fill="white"/>
<path d="M115.945 22.8966V21.75H117.164V22.8966H115.945ZM115.945 28.2148V23.5317H117.164V28.2148H115.945Z" fill="white"/>
<path d="M119.684 28.2065L117.828 23.5234H119.108L119.975 25.9134L120.227 26.7117C120.293 26.5087 120.335 26.3751 120.352 26.3102C120.393 26.178 120.436 26.0457 120.483 25.9134L121.359 23.5234H122.612L120.782 28.2065H119.684Z" fill="white"/>
<path d="M123.359 22.8966V21.75H124.578V22.8966H123.359ZM123.359 28.2148V23.5317H124.578V28.2148H123.359Z" fill="white"/>
<path d="M130.053 28.2146H128.92V27.5267C128.733 27.7943 128.511 27.9935 128.255 28.124C127.999 28.2549 127.741 28.3205 127.48 28.3205C126.951 28.3205 126.498 28.1036 126.121 27.67C125.743 27.2365 125.555 26.6314 125.555 25.8555C125.555 25.0617 125.738 24.4582 126.106 24.0453C126.473 23.6322 126.937 23.4257 127.498 23.4257C128.013 23.4257 128.458 23.6434 128.834 24.0783V21.75H130.053V28.2146H130.053ZM126.8 25.7716C126.8 26.2715 126.867 26.6329 127.003 26.8565C127.2 27.1798 127.475 27.3414 127.828 27.3414C128.108 27.3414 128.347 27.2202 128.543 26.9778C128.74 26.7352 128.838 26.3729 128.838 25.8907C128.838 25.3527 128.743 24.9653 128.552 24.7288C128.361 24.4922 128.117 24.3738 127.819 24.3738C127.53 24.3738 127.288 24.4907 127.092 24.7243C126.897 24.9579 126.8 25.3072 126.8 25.7716Z" fill="white"/>
<path d="M134.285 28.2067V27.5056C134.117 27.7554 133.896 27.9523 133.623 28.0964C133.35 28.2405 133.062 28.3125 132.758 28.3125C132.448 28.3125 132.171 28.2434 131.925 28.1053C131.679 27.967 131.501 27.773 131.392 27.5231C131.282 27.2733 131.227 26.9278 131.227 26.4868V23.5234H132.446V25.6753C132.446 26.3339 132.468 26.7374 132.513 26.8858C132.558 27.0343 132.639 27.152 132.758 27.2387C132.876 27.3255 133.027 27.3689 133.209 27.3689C133.417 27.3689 133.604 27.3107 133.768 27.1946C133.933 27.0784 134.046 26.9343 134.107 26.7623C134.167 26.5904 134.198 26.1692 134.198 25.499V23.5234H135.417V28.2065H134.285V28.2067Z" fill="white"/>
<path d="M137.591 24.9486L136.485 24.7458C136.609 24.2931 136.823 23.9579 137.127 23.7403C137.431 23.5228 137.882 23.4141 138.48 23.4141C139.024 23.4141 139.429 23.4794 139.695 23.6103C139.961 23.7412 140.148 23.9073 140.256 24.1085C140.365 24.3099 140.419 24.6796 140.419 25.2175L140.406 26.664C140.406 27.0756 140.426 27.3791 140.465 27.5746C140.504 27.7702 140.577 27.9796 140.684 28.203H139.478C139.446 28.1208 139.407 27.9989 139.361 27.8369C139.341 27.7635 139.326 27.7149 139.318 27.6914C139.109 27.8971 138.887 28.0515 138.65 28.1543C138.413 28.2574 138.159 28.3087 137.89 28.3087C137.416 28.3087 137.043 28.1778 136.769 27.9162C136.496 27.6546 136.359 27.3238 136.359 26.9241C136.359 26.6594 136.421 26.4235 136.546 26.2163C136.67 26.0091 136.844 25.8502 137.068 25.7401C137.292 25.6299 137.616 25.5335 138.038 25.4512C138.607 25.3424 139.002 25.241 139.222 25.1469V25.0234C139.222 24.7852 139.164 24.6156 139.049 24.514C138.933 24.4125 138.715 24.3619 138.394 24.3619C138.177 24.3619 138.008 24.4053 137.886 24.4919C137.765 24.5785 137.666 24.731 137.591 24.9486ZM139.222 25.954C139.066 26.0068 138.818 26.0701 138.48 26.1434C138.142 26.217 137.921 26.289 137.816 26.3595C137.657 26.4743 137.578 26.6198 137.578 26.7961C137.578 26.9697 137.641 27.1197 137.769 27.2459C137.896 27.3724 138.058 27.4355 138.254 27.4355C138.474 27.4355 138.684 27.3619 138.884 27.2151C139.031 27.1034 139.128 26.9667 139.174 26.8049C139.206 26.699 139.222 26.4976 139.222 26.2009V25.954Z" fill="white"/>
<path d="M141.617 28.2146V21.75H142.836V28.2146H141.617Z" fill="white"/>
<path d="M102.594 39.0429V32.5781H103.878V39.0429H102.594Z" fill="white"/>
<path d="M109.293 39.0471H108.074V36.6569C108.074 36.1514 108.048 35.8242 107.996 35.6758C107.943 35.5274 107.859 35.412 107.742 35.3295C107.625 35.2473 107.484 35.206 107.319 35.206C107.108 35.206 106.918 35.265 106.751 35.3823C106.583 35.5 106.468 35.6558 106.406 35.8498C106.344 36.044 106.313 36.4027 106.313 36.9257V39.0468H105.094V34.3637H106.226V35.0516C106.628 34.5223 107.134 34.2578 107.744 34.2578C108.013 34.2578 108.259 34.307 108.481 34.4055C108.704 34.504 108.872 34.6297 108.987 34.7824C109.101 34.9354 109.18 35.1087 109.225 35.3027C109.27 35.4969 109.292 35.7746 109.292 36.1361V39.0471H109.293Z" fill="white"/>
<path d="M111.794 39.0425L109.938 34.3594H111.217L112.085 36.7494L112.336 37.5476C112.403 37.3447 112.445 37.211 112.462 37.1462C112.502 37.0139 112.546 36.8816 112.592 36.7494L113.468 34.3594H114.722L112.891 39.0425H111.794Z" fill="white"/>
<path d="M118.133 37.5563L119.347 37.7636C119.191 38.2165 118.944 38.5609 118.607 38.7977C118.27 39.0344 117.849 39.1526 117.343 39.1526C116.542 39.1526 115.949 38.8865 115.565 38.3544C115.261 37.9283 115.109 37.3903 115.109 36.7405C115.109 35.9645 115.309 35.3568 115.708 34.9171C116.107 34.4776 116.611 34.2578 117.222 34.2578C117.907 34.2578 118.448 34.4879 118.844 34.9478C119.24 35.408 119.43 36.1128 119.412 37.0623H116.359C116.367 37.4299 116.466 37.7157 116.653 37.92C116.841 38.1243 117.076 38.2264 117.356 38.2264C117.547 38.2264 117.707 38.1734 117.838 38.0676C117.968 37.9621 118.066 37.7915 118.133 37.5563ZM118.202 36.304C118.193 35.9453 118.102 35.6726 117.929 35.4859C117.755 35.2993 117.544 35.2058 117.295 35.2058C117.029 35.2058 116.81 35.3043 116.636 35.5014C116.463 35.6983 116.377 35.9659 116.38 36.304H118.202Z" fill="white"/>
<path d="M119.969 37.7104L121.192 37.5208C121.244 37.762 121.35 37.9451 121.509 38.07C121.668 38.1948 121.89 38.2573 122.177 38.2573C122.492 38.2573 122.729 38.1984 122.888 38.0809C122.995 37.9988 123.048 37.8885 123.048 37.7502C123.048 37.6562 123.02 37.5783 122.962 37.5165C122.901 37.4577 122.765 37.4035 122.554 37.3534C121.571 37.133 120.947 36.9316 120.685 36.7494C120.32 36.4965 120.138 36.1454 120.138 35.6954C120.138 35.2897 120.296 34.9486 120.611 34.6723C120.926 34.3961 121.415 34.2578 122.077 34.2578C122.707 34.2578 123.176 34.3621 123.482 34.5709C123.788 34.7797 124 35.0884 124.115 35.4969L122.966 35.7129C122.917 35.5305 122.823 35.3911 122.686 35.2941C122.549 35.1972 122.353 35.1485 122.099 35.1485C121.778 35.1485 121.548 35.1941 121.409 35.2852C121.316 35.3499 121.27 35.4336 121.27 35.5365C121.27 35.6249 121.311 35.6997 121.392 35.7616C121.501 35.8438 121.881 35.9599 122.53 36.1098C123.179 36.2598 123.633 36.4435 123.89 36.6612C124.144 36.8816 124.272 37.1889 124.272 37.5828C124.272 38.012 124.095 38.3808 123.743 38.6896C123.39 38.9982 122.868 39.1526 122.177 39.1526C121.549 39.1526 121.053 39.0232 120.687 38.7644C120.321 38.5055 120.081 38.1542 119.969 37.7104Z" fill="white"/>
<path d="M127.459 34.3565V35.3443H126.626V37.2317C126.626 37.6139 126.634 37.8365 126.65 37.8998C126.666 37.9631 126.702 38.0153 126.759 38.0563C126.815 38.0975 126.884 38.118 126.965 38.118C127.077 38.118 127.241 38.0784 127.455 37.999L127.559 38.9603C127.275 39.0839 126.954 39.1456 126.596 39.1456C126.376 39.1456 126.178 39.108 126.002 39.0332C125.825 38.9581 125.696 38.8612 125.614 38.7421C125.531 38.6232 125.474 38.4622 125.442 38.2594C125.416 38.1153 125.403 37.8243 125.403 37.3862V35.3446H124.844V34.3568H125.403V33.4264L126.626 32.7031V34.3568H127.459V34.3565Z" fill="white"/>
<path d="M128.023 36.6391C128.023 36.2275 128.123 35.8292 128.323 35.4441C128.522 35.0589 128.805 34.7649 129.171 34.562C129.536 34.359 129.945 34.2578 130.396 34.2578C131.093 34.2578 131.664 34.4879 132.109 34.9478C132.555 35.408 132.777 35.9892 132.777 36.6919C132.777 37.4004 132.552 37.9878 132.103 38.4537C131.653 38.9196 131.087 39.1526 130.405 39.1526C129.982 39.1526 129.58 39.0557 129.197 38.8615C128.814 38.6675 128.522 38.383 128.323 38.0082C128.123 37.6335 128.023 37.177 128.023 36.6391ZM129.273 36.7053C129.273 37.1698 129.381 37.5255 129.598 37.7725C129.815 38.0193 130.082 38.1429 130.4 38.1429C130.719 38.1429 130.985 38.0193 131.201 37.7725C131.416 37.5256 131.524 37.1669 131.524 36.6965C131.524 36.238 131.416 35.8853 131.201 35.6383C130.985 35.3914 130.719 35.2679 130.4 35.2679C130.082 35.2679 129.815 35.3914 129.598 35.6383C129.381 35.8851 129.273 36.2407 129.273 36.7053Z" fill="white"/>
<path d="M134.898 39.0468H133.68V34.3637H134.812V35.0294C135.005 34.715 135.18 34.5078 135.334 34.4077C135.489 34.3079 135.665 34.2578 135.861 34.2578C136.139 34.2578 136.406 34.3357 136.664 34.4915L136.287 35.5719C136.081 35.4367 135.89 35.3689 135.714 35.3689C135.543 35.3689 135.399 35.4168 135.28 35.5123C135.162 35.6079 135.068 35.7805 135.001 36.0306C134.933 36.2804 134.899 36.8038 134.899 37.6003V39.0468H134.898Z" fill="white"/>
<path d="M136.758 37.7104L137.981 37.5208C138.033 37.762 138.139 37.9451 138.298 38.07C138.457 38.1948 138.679 38.2573 138.966 38.2573C139.281 38.2573 139.518 38.1984 139.677 38.0809C139.784 37.9988 139.837 37.8885 139.837 37.7502C139.837 37.6562 139.809 37.5783 139.751 37.5165C139.69 37.4577 139.554 37.4035 139.343 37.3534C138.36 37.133 137.736 36.9316 137.474 36.7494C137.109 36.4965 136.927 36.1454 136.927 35.6954C136.927 35.2897 137.085 34.9486 137.4 34.6723C137.715 34.3961 138.204 34.2578 138.866 34.2578C139.496 34.2578 139.965 34.3621 140.271 34.5709C140.578 34.7797 140.789 35.0884 140.905 35.4969L139.755 35.7129C139.706 35.5305 139.613 35.3911 139.475 35.2941C139.338 35.1972 139.142 35.1485 138.888 35.1485C138.567 35.1485 138.337 35.1941 138.198 35.2852C138.105 35.3499 138.059 35.4336 138.059 35.5365C138.059 35.6249 138.1 35.6997 138.181 35.7616C138.29 35.8438 138.67 35.9599 139.319 36.1098C139.968 36.2598 140.422 36.4435 140.679 36.6612C140.934 36.8816 141.061 37.1889 141.061 37.5828C141.061 38.012 140.884 38.3808 140.532 38.6896C140.179 38.9982 139.657 39.1526 138.966 39.1526C138.338 39.1526 137.842 39.0232 137.476 38.7644C137.11 38.5055 136.871 38.1542 136.758 37.7104Z" fill="white"/>
</g>
<defs>
<clipPath id="clip0_5423_141318">
<rect width="163" height="41" fill="white" transform="translate(0.5)"/>
</clipPath>
</defs>
</svg>
