<?xml version="1.0" encoding="UTF-8"?>
<svg id="Layer_2" data-name="Layer 2" xmlns="http://www.w3.org/2000/svg" viewBox="0 0 74.1 45">
  <defs>
    <style>
      .cls-1 {
        fill: #5d1725;
      }
    </style>
  </defs>
  <g id="Layer_1-2" data-name="Layer 1">
    <g>
      <path class="cls-1" d="M70.7,23.3l2.79-6.09c-3.82-2.49-7.99-4.64-12.39-6.31v-1.33l2.63-4.23V0h-16.69l-6.47,10.06c-1.18-.07-2.36-.11-3.53-.11s-2.35,.04-3.53,.11L27.05,0H10.36V5.35l2.63,4.23v1.33c-4.4,1.67-8.57,3.82-12.39,6.31l2.79,6.09L0,34.15c2.54-1.67,5.16-3.18,7.47-4.34v5.97c1.75-1.04,3.59-1.98,5.52-2.83v2.51l-2.63,4.02v5.51H28.18V28.69c.64-.09,1.29-.17,1.94-.24l6.93,10.92,6.93-10.92c.65,.07,1.3,.15,1.94,.24v16.32h17.81v-5.51l-2.63-4.02v-2.51c1.93,.85,3.78,1.79,5.52,2.83v-5.97c2.31,1.16,4.94,2.67,7.47,4.34l-3.4-10.85ZM7.47,27.83c-1.47,.72-2.93,1.48-4.35,2.3l2.17-6.94-2.43-5.3c3.15-1.97,6.47-3.63,10.13-5.07v2.07c-1.41,.56-3.87,1.77-5.52,2.63v10.32Zm57.25,4.95c-8.46-4.24-18.37-6.62-27.67-6.62s-19.21,2.38-27.67,6.62v-14.09c8.45-4.39,18.38-6.83,27.67-6.83s19.22,2.44,27.67,6.83v14.09Zm1.9-4.95v-10.32c-1.66-.86-4.12-2.07-5.52-2.63v-2.07c3.66,1.44,6.97,3.1,10.13,5.07l-2.43,5.3,2.17,6.94c-1.42-.81-2.87-1.58-4.35-2.3Z"/>
      <path class="cls-1" d="M69.99,41h.18c.2,0,.35-.07,.35-.22s-.12-.24-.33-.24c-.09,0-.15,.01-.2,.01v.45h0Zm-.01,.98h-.47v-1.72c.14-.02,.4-.05,.72-.05,.36,0,.52,.05,.64,.13,.12,.07,.19,.2,.19,.37,0,.18-.16,.33-.38,.4v.02c.18,.06,.28,.2,.33,.44,.05,.26,.1,.35,.13,.42h-.52c-.05-.06-.09-.21-.13-.4-.03-.18-.13-.26-.32-.26h-.18v.65h0Zm-1.09-.89c0,.77,.58,1.39,1.35,1.39s1.34-.62,1.34-1.39-.57-1.39-1.34-1.39-1.35,.62-1.35,1.39h0Zm3.2-.01c0,1.02-.81,1.82-1.85,1.82s-1.86-.8-1.86-1.82,.83-1.8,1.86-1.8,1.85,.8,1.85,1.8h0Z"/>
      <path class="cls-1" d="M41.36,24.22c-1.25-.1-2.52-.15-3.77-.17v-1.76h.83s-.56-1.58-.56-1.58l-3.37,.04-.59,1.61s.84-.03,.84-.03v1.76c-1.19,.04-2.39,.12-3.57,.23v-1.75l.83-.08s3.08-8.67,3.08-8.67c.8-.02,1.62-.03,2.43-.02l2.95,8.61s.63,.04,.9,.07v1.76h0Zm-5.14-8.27s-1.15,3.22-1.15,3.22l2.26-.03-1.1-3.19h0Zm18.52,2.38v2.49s1.98,.67,2.89,1.01v1.57c-.86-.32-2.89-1-2.89-1v2.69l3.07,1.07v-.78c.7,.27,1.4,.55,2.09,.84v2.5c-2.66-1.12-5.41-2.05-8.18-2.77v-1.74l.87,.23s0-6.75,0-6.75c0,0-.87-.23-.87-.23v-1.75c2.78,.73,5.53,1.67,8.18,2.79v2.36c-.69-.29-1.39-.57-2.09-.84v-.63s-3.07-1.07-3.07-1.07h0Zm-4.58-.06c-.56-.13-1.13-.25-1.7-.37v-1.19l-1.87-.34v6.74s.87,.16,.87,.16v1.75c-1.3-.24-2.63-.44-3.95-.59v-1.75l.87,.1s0-6.73,0-6.73l-1.86-.21v1.19c-.57-.06-1.15-.1-1.73-.14v-2.95c3.14,.21,6.29,.68,9.36,1.4v2.94h0Zm-29.1,.19c-.72,.2-1.44,.41-2.15,.64v-.76l-3.09,1.07v2.31s2.85-1.03,4-1.37l1.24,.81v3.31l-1.76,2.22c-1.34,.42-2.69,.88-4,1.4-.52-.33-1.05-.65-1.56-.96v-1.24c.69-.29,1.39-.57,2.09-.84v1.21l.3-.11c.85-.32,2.79-.97,2.79-.97v-2.97s-2.87,.97-4.05,1.44l-1.12-.76v-2.73l1.69-2.35c1.3-.51,2.65-.97,3.99-1.39,.54,.35,1.09,.72,1.65,1.09v.95h0Zm10.73-1.5c-.58,.05-1.16,.11-1.73,.17v-1.19l-1.88,.25v6.73s.87-.12,.87-.12v1.75c-1.31,.17-2.64,.39-3.94,.66v-1.75l.86-.17s0-6.74,0-6.74l-1.85,.37v1.19c-.56,.12-1.13,.26-1.69,.4v-2.94c3.07-.77,6.21-1.3,9.35-1.57v2.95h0Z"/>
    </g>
  </g>
</svg>